<?xml version="1.0" encoding="UTF-8" standalone="no"?>
<!-- Created with Inkscape (http://www.inkscape.org/) by Toomai Glittershine for SmashWiki -->
<svg id="svg2" xmlns:rdf="http://www.w3.org/1999/02/22-rdf-syntax-ns#" xmlns="http://www.w3.org/2000/svg" version="1.1" xmlns:cc="http://creativecommons.org/ns#" xmlns:dc="http://purl.org/dc/elements/1.1/" xmlns:xlink="http://www.w3.org/1999/xlink"
		height="256" width="256"
		viewBox="0 0 256 256">
	<defs id="defs4">
		<clipPath id="clipPath4175" clipPathUnits="userSpaceOnUse" >
			<ellipse id="ellipse4177" cx="155.5" cy="224" rx="144.5" ry="168"/>
		</clipPath>
		<clipPath id="clipPath4187" clipPathUnits="userSpaceOnUse" >
			<path id="path4189"
				d="m -24,2 0,227 C 16,169 288,68 461,37 l 0,-35 z"
			/>
		</clipPath>
	</defs>
	<metadata id="metadata7">
		<rdf:RDF>
			<cc:Work rdf:about="">
				<dc:format>image/svg+xml</dc:format>
				<dc:type rdf:resource="http://purl.org/dc/dcmitype/StillImage"/>
				<dc:title/>
			</cc:Work>
		</rdf:RDF>
	</metadata>
	<g id="g4239">
		<path id="rect4229" style="opacity:0.25;fill:#000000;fill-opacity:1;stroke:none;"
			d="m 110,74 0,55 25,0 0,-12 -13,0 0,-43 z"
		/>
		<path id="path4234" style="opacity:0.33333333;fill:#000000;fill-opacity:1;stroke:none;"
			d="M 110 74 L 110 78 L 122 78 L 122 74 L 110 74 z M 122 117 L 122 121 L 135 121 L 135 117 L 122 117 z "
		/>
		<g id="g4183" clip-path="url(#clipPath4187)">
			<ellipse id="path3363" cx="155.5" cy="224" rx="144.5" ry="168" style="opacity:1;fill:#bfbfbf;fill-opacity:1;stroke:none;" transform="translate(0,70)" />
			<ellipse id="ellipse4167" clip-path="url(#clipPath4175)" cx="155.5" cy="224" rx="144.5" ry="168" style="opacity:0.1;fill:none;stroke:#bfbfbf;stroke-width:10;stroke-linecap:butt;stroke-linejoin:miter;stroke-miterlimit:4;stroke-dasharray:none;stroke-dashoffset:0;stroke-opacity:1;" />
		</g>
	</g>
</svg>